<svg enable-background="new 0 0 64 64" height="64" viewBox="0 0 64 64" width="64" xmlns="http://www.w3.org/2000/svg"><path d="m25 12.68v-6.68l3 1 4-3 4 3 3-1v6.68.011c-1.93.829-3.72 2.309-7 2.309-3.279 0-5.069-1.48-7-2.31z" fill="#ffce54"/><path d="m36 7v7.158c1.102-.474 2.033-1.053 3-1.468v-.01-6.68z" fill="#f6bb42"/><path d="m20 13c2.761 0 5 2.24 5 5s-2.239 5-5 5c-1.63 0-3.09-.79-4-2-.63-.83-1-1.87-1-3 0-2.42 1.721-4.44 4-4.9.32-.07.66-.1 1-.1z" fill="#fc6e51"/><path d="m49 18c0 1.13-.369 2.17-1 3-.909 1.21-2.369 2-4 2-2.76 0-5-2.24-5-5s2.24-5 5-5c.341 0 .681.03 1 .1 2.28.46 4 2.48 4 4.9z" fill="#fc6e51"/><path d="m45 13.1c-.319-.069-.659-.1-1-.1-.521 0-1.015.103-1.487.251 2.016.641 3.487 2.517 3.487 4.749 0 1.13-.369 2.17-1 3-.612.815-1.479 1.433-2.475 1.753.469.145.958.247 1.475.247 1.631 0 3.091-.79 4-2 .631-.83 1-1.87 1-3 0-2.42-1.72-4.44-4-4.9z" fill="#e9573f"/><path d="m21.02 13.1c-.319-.069-.659-.1-1-.1-.521 0-1.015.103-1.487.251 2.017.641 3.487 2.517 3.487 4.749 0 1.13-.369 2.17-1 3-.612.815-1.479 1.433-2.475 1.753.469.145.958.247 1.475.247 1.631 0 3.091-.79 4-2 .631-.83 1-1.87 1-3 0-2.42-1.72-4.44-4-4.9z" fill="#e9573f"/><g fill="#a0d468"><path d="m25 12.69c1.931.83 3.721 2.31 7 2.31 3.28 0 5.07-1.48 7-2.31 1.591-.7 3.28-.96 6 .409-.319-.069-.659-.1-1-.1-2.76 0-5 2.24-5 5s2.24 5 5 5c1.631 0 3.091-.79 4-2 0 0 3 1 3 4 0 1.59-2.25 4.58-6 7.04-3.319 2.191-7.83 3.961-13 3.961s-9.68-1.77-13-3.96c-3.75-2.46-6-5.45-6-7.04 0-3 3-4 3-4 .91 1.21 2.37 2 4 2 2.761 0 5-2.24 5-5s-2.239-5-5-5c-.34 0-.68.03-1 .1 2.721-1.37 4.41-1.11 6-.41z"/><path d="m9 61.5c0 .18-.029.34-.09.5-.2.58-.76 1-1.41 1-.83 0-1.5-.67-1.5-1.5s.67-1.5 1.5-1.5c.181 0 .341.03.5.09.58.2 1 .76 1 1.41z"/><path d="m17.91 62c-.2.58-.76 1-1.41 1-.649 0-1.21-.42-1.409-1-.061-.16-.091-.32-.091-.5 0-.83.67-1.5 1.5-1.5.181 0 .341.03.5.09.58.2 1 .76 1 1.41 0 .18-.029.34-.09.5z"/><path d="m23.91 62c-.2.58-.76 1-1.41 1-.649 0-1.21-.42-1.409-1-.061-.16-.091-.32-.091-.5 0-.83.67-1.5 1.5-1.5s1.5.67 1.5 1.5c0 .18-.029.34-.09.5z"/><path d="m29.91 62c-.2.58-.76 1-1.41 1-.649 0-1.21-.42-1.409-1-.061-.16-.091-.32-.091-.5 0-.65.42-1.21 1-1.41.16-.06.32-.09.5-.09.83 0 1.5.67 1.5 1.5 0 .18-.029.34-.09.5z"/><path d="m36.91 62c-.2.58-.76 1-1.41 1-.649 0-1.21-.42-1.409-1-.061-.16-.091-.32-.091-.5 0-.83.67-1.5 1.5-1.5.181 0 .341.03.5.09.58.2 1 .76 1 1.41 0 .18-.029.34-.09.5z"/><path d="m42.91 62c-.2.58-.76 1-1.41 1-.649 0-1.21-.42-1.409-1-.061-.16-.091-.32-.091-.5 0-.83.67-1.5 1.5-1.5s1.5.67 1.5 1.5c0 .18-.029.34-.09.5z"/><path d="m56.5 60c.83 0 1.5.67 1.5 1.5s-.67 1.5-1.5 1.5c-.649 0-1.21-.42-1.409-1-.061-.16-.091-.32-.091-.5 0-.65.42-1.21 1-1.41.16-.06.32-.09.5-.09z"/><path d="m48.91 62c-.2.58-.76 1-1.41 1-.649 0-1.21-.42-1.409-1-.061-.16-.091-.32-.091-.5 0-.65.42-1.21 1-1.41.16-.06.32-.09.5-.09.83 0 1.5.67 1.5 1.5 0 .18-.029.34-.09.5z"/></g><path d="m50.04 57.46 5.96 2.63c-.58.2-1 .76-1 1.41 0 .18.03.34.091.5h-6.181c.061-.16.09-.32.09-.5 0-.83-.67-1.5-1.5-1.5-.18 0-.34.03-.5.09l-2-1.49v-5.6-12s9-5 12-1c2.891 3.86-6.31 16.56-6.96 17.46z" fill="#80b23f"/><path d="m28 60.09-2-1.49v-10.6c0-3.31 2.69-6 6-6 3.311 0 6 2.69 6 6v10.6l-2 1.49c-.159-.06-.319-.09-.5-.09-.83 0-1.5.67-1.5 1.5 0 .18.03.34.091.5h-4.181c.061-.16.09-.32.09-.5 0-.83-.67-1.5-1.5-1.5-.18 0-.34.03-.5.09z" fill="#80b23f"/><path d="m19 53v5.6l-2 1.49c-.159-.06-.319-.09-.5-.09-.83 0-1.5.67-1.5 1.5 0 .18.03.34.091.5h-6.181c.061-.16.09-.32.09-.5 0-.65-.42-1.21-1-1.41l5.96-2.63c-.649-.9-9.85-13.6-6.96-17.46 3-4 12 1 12 1z" fill="#80b23f"/><path d="m26 58.6 2 1.49c-.58.2-1 .76-1 1.41 0 .18.03.34.091.5h-3.181c.061-.16.09-.32.09-.5 0-.83-.67-1.5-1.5-1.5s-1.5.67-1.5 1.5c0 .18.03.34.091.5h-3.181c.061-.16.09-.32.09-.5 0-.65-.42-1.21-1-1.41l2-1.49v-5.6-12-8.96c3.32 2.19 7.83 3.96 13 3.96s9.681-1.77 13-3.96v.01 8.95 12 5.6l2 1.49c-.58.2-1 .76-1 1.41 0 .18.03.34.091.5h-3.181c.061-.16.09-.32.09-.5 0-.83-.67-1.5-1.5-1.5s-1.5.67-1.5 1.5c0 .18.03.34.091.5h-3.181c.061-.16.09-.32.09-.5 0-.65-.42-1.21-1-1.41l2-1.49v-10.6c0-3.31-2.689-6-6-6-3.31 0-6 2.69-6 6z" fill="#8cc152"/><path d="m34.03 24c-.553 0-1.005-.447-1.005-1s.442-1 .994-1h.011c.552 0 1 .447 1 1s-.448 1-1 1z"/><path d="m32.03 2c-.553 0-1.005-.447-1.005-1s.442-1 .994-1h.011c.552 0 1 .447 1 1s-.448 1-1 1z"/><path d="m39.03 4c-.553 0-1.005-.447-1.005-1s.442-1 .994-1h.011c.552 0 1 .447 1 1s-.448 1-1 1z"/><path d="m25.03 4c-.553 0-1.005-.447-1.005-1s.442-1 .994-1h.011c.552 0 1 .447 1 1s-.448 1-1 1z"/><path d="m30.03 24c-.553 0-1.005-.447-1.005-1s.442-1 .994-1h.011c.552 0 1 .447 1 1s-.448 1-1 1z"/><path d="m20.001 24c-3.309 0-6.001-2.691-6.001-6s2.692-6 6.001-6c3.308 0 5.999 2.691 5.999 6s-2.691 6-5.999 6zm0-10c-2.206 0-4.001 1.794-4.001 4s1.795 4 4.001 4c2.205 0 3.999-1.794 3.999-4s-1.794-4-3.999-4z"/><path d="m32 16c-2.745 0-4.518-.929-6.081-1.747-1.988-1.043-3.423-1.795-6.469-.26-.494.249-1.095.051-1.343-.442-.249-.492-.051-1.094.442-1.343 3.961-2 6.166-.844 8.297.272 1.427.748 2.901 1.52 5.154 1.52.553 0 1 .447 1 1s-.447 1-1 1z"/><path d="m32 37c-.553 0-1-.447-1-1s.447-1 1-1c10.531 0 18-7.583 18-10 0-2.253-2.295-3.044-2.318-3.051-.523-.175-.807-.741-.633-1.266.175-.523.736-.804 1.266-.633.15.052 3.685 1.271 3.685 4.95 0 3.579-8.445 12-20 12z"/><path d="m32 37c-11.555 0-20-8.421-20-12 0-3.679 3.535-4.898 3.686-4.949.529-.171 1.091.109 1.266.633.174.524-.109 1.091-.633 1.266-.09.029-2.319.826-2.319 3.05 0 2.417 7.469 10 18 10 .553 0 1 .447 1 1s-.447 1-1 1z"/><path d="m43.999 24c-3.308 0-5.999-2.691-5.999-6s2.691-6 5.999-6c3.309 0 6.001 2.691 6.001 6s-2.692 6-6.001 6zm0-10c-2.205 0-3.999 1.794-3.999 4s1.794 4 3.999 4c2.206 0 4.001-1.794 4.001-4s-1.795-4-4.001-4z"/><path d="m32 16c-.553 0-1-.447-1-1s.447-1 1-1c2.253 0 3.727-.772 5.153-1.52 2.131-1.117 4.338-2.273 8.297-.272.493.249.691.851.442 1.343-.248.493-.848.693-1.343.442-3.042-1.536-4.479-.783-6.469.26-1.562.818-3.335 1.747-6.08 1.747z"/><path d="m35.5 64c-1.379 0-2.5-1.121-2.5-2.5s1.121-2.5 2.5-2.5 2.5 1.121 2.5 2.5-1.121 2.5-2.5 2.5zm0-3c-.275 0-.5.225-.5.5s.225.5.5.5.5-.225.5-.5-.225-.5-.5-.5z"/><path d="m41.5 64c-1.379 0-2.5-1.121-2.5-2.5s1.121-2.5 2.5-2.5 2.5 1.121 2.5 2.5-1.121 2.5-2.5 2.5zm0-3c-.275 0-.5.225-.5.5s.225.5.5.5.5-.225.5-.5-.225-.5-.5-.5z"/><path d="m47.5 64c-1.379 0-2.5-1.121-2.5-2.5s1.121-2.5 2.5-2.5 2.5 1.121 2.5 2.5-1.121 2.5-2.5 2.5zm0-3c-.275 0-.5.225-.5.5s.225.5.5.5.5-.225.5-.5-.225-.5-.5-.5z"/><path d="m46.999 61.088c-.207 0-.416-.064-.596-.197l-3.997-2.971c-.443-.329-.535-.956-.206-1.399.329-.441.956-.535 1.399-.206l3.997 2.971c.443.329.535.956.206 1.399-.196.263-.497.403-.803.403z"/><path d="m36.004 61.088c-.306 0-.607-.14-.804-.403-.329-.443-.237-1.069.206-1.399l3.997-2.973c.441-.329 1.069-.237 1.399.206.329.443.237 1.069-.206 1.399l-3.996 2.973c-.179.132-.389.197-.596.197z"/><path d="m46.089 63h-3.179c-.553 0-1-.447-1-1s.447-1 1-1h3.179c.553 0 1 .447 1 1s-.447 1-1 1z"/><path d="m40.089 63h-3.179c-.553 0-1-.447-1-1s.447-1 1-1h3.179c.553 0 1 .447 1 1s-.447 1-1 1z"/><path d="m38 49c-.553 0-1-.447-1-1 0-2.757-2.243-5-5-5s-5 2.243-5 5c0 .553-.447 1-1 1s-1-.447-1-1c0-3.859 3.141-7 7-7s7 3.141 7 7c0 .553-.447 1-1 1z"/><path d="m26 59.602c-.553 0-1-.447-1-1v-10.602c0-.553.447-1 1-1s1 .447 1 1v10.602c0 .552-.447 1-1 1z"/><path d="m38 59.602c-.553 0-1-.447-1-1v-10.602c0-.553.447-1 1-1s1 .447 1 1v10.602c0 .552-.447 1-1 1z"/><path d="m45 59.602c-.553 0-1-.447-1-1v-26.553c0-.553.447-1 1-1s1 .447 1 1v26.553c0 .552-.447 1-1 1z"/><path d="m28.5 64c-1.379 0-2.5-1.121-2.5-2.5s1.121-2.5 2.5-2.5 2.5 1.121 2.5 2.5-1.121 2.5-2.5 2.5zm0-3c-.275 0-.5.225-.5.5s.225.5.5.5.5-.225.5-.5-.225-.5-.5-.5z"/><path d="m22.5 64c-1.379 0-2.5-1.121-2.5-2.5s1.121-2.5 2.5-2.5 2.5 1.121 2.5 2.5-1.121 2.5-2.5 2.5zm0-3c-.275 0-.5.225-.5.5s.225.5.5.5.5-.225.5-.5-.225-.5-.5-.5z"/><path d="m16.5 64c-1.379 0-2.5-1.121-2.5-2.5s1.121-2.5 2.5-2.5 2.5 1.121 2.5 2.5-1.121 2.5-2.5 2.5zm0-3c-.275 0-.5.225-.5.5s.225.5.5.5.5-.225.5-.5-.225-.5-.5-.5z"/><path d="m17.001 61.088c-.306 0-.607-.14-.804-.403-.329-.443-.237-1.07.206-1.399l3.997-2.971c.444-.33 1.07-.236 1.399.206.329.443.237 1.07-.206 1.399l-3.997 2.971c-.179.132-.388.197-.595.197z"/><path d="m27.996 61.088c-.207 0-.417-.064-.596-.197l-3.997-2.973c-.443-.33-.535-.956-.206-1.399.33-.442.957-.534 1.399-.206l3.997 2.973c.443.33.535.956.206 1.399-.195.263-.497.403-.803.403z"/><path d="m21.09 63h-3.179c-.553 0-1-.447-1-1s.447-1 1-1h3.179c.553 0 1 .447 1 1s-.447 1-1 1z"/><path d="m27.09 63h-3.179c-.553 0-1-.447-1-1s.447-1 1-1h3.179c.553 0 1 .447 1 1s-.447 1-1 1z"/><path d="m19 59.602c-.553 0-1-.447-1-1v-26.582c0-.553.447-1 1-1s1 .447 1 1v26.582c0 .552-.447 1-1 1z"/><path d="m34.091 63h-4.179c-.553 0-1-.447-1-1s.447-1 1-1h4.179c.553 0 1 .447 1 1s-.447 1-1 1z"/><path d="m56.5 64c-1.379 0-2.5-1.121-2.5-2.5s1.121-2.5 2.5-2.5 2.5 1.121 2.5 2.5-1.121 2.5-2.5 2.5zm0-3c-.275 0-.5.225-.5.5s.225.5.5.5.5-.225.5-.5-.225-.5-.5-.5z"/><path d="m49.999 58.515c-.206 0-.415-.063-.594-.196-.444-.328-.537-.954-.209-1.398 3.968-5.365 8.765-13.976 7.005-16.32-2.028-2.704-8.422.005-10.714 1.274-.481.27-1.092.094-1.359-.389s-.095-1.091.389-1.359c.398-.222 9.801-5.367 13.284-.728 3.282 4.374-5.253 16.354-6.997 18.711-.197.265-.498.405-.805.405z"/><path d="m55.999 61.089c-.135 0-.271-.027-.402-.085l-7-3.089c-.506-.223-.734-.813-.512-1.318s.815-.732 1.318-.512l7 3.089c.506.223.734.813.512 1.318-.165.374-.531.597-.916.597z"/><path d="m55.088 63h-6.178c-.553 0-1-.447-1-1s.447-1 1-1h6.178c.553 0 1 .447 1 1s-.447 1-1 1z"/><path d="m45.001 54c-.201 0-.404-.061-.58-.187-.449-.32-.554-.945-.232-1.395l4.998-7c.32-.449.946-.554 1.395-.232.449.32.554.945.232 1.395l-4.998 7c-.195.273-.503.419-.815.419z"/><path d="m7.5 64c-1.379 0-2.5-1.121-2.5-2.5s1.121-2.5 2.5-2.5 2.5 1.121 2.5 2.5-1.121 2.5-2.5 2.5zm0-3c-.275 0-.5.225-.5.5s.225.5.5.5.5-.225.5-.5-.225-.5-.5-.5z"/><path d="m14.001 58.515c-.307 0-.608-.14-.805-.405-1.744-2.357-10.279-14.337-6.997-18.711 3.481-4.642 12.886.506 13.284.728.483.269.656.877.389 1.359s-.878.658-1.359.389c-2.291-1.27-8.686-3.979-10.714-1.274-1.762 2.347 3.036 10.956 7.005 16.32.329.444.235 1.07-.209 1.398-.179.132-.388.196-.594.196z"/><path d="m8.001 61.089c-.385 0-.751-.223-.916-.597-.223-.505.006-1.096.512-1.318l7-3.089c.506-.221 1.097.007 1.318.512.223.505-.006 1.096-.512 1.318l-7 3.089c-.131.058-.267.085-.402.085z"/><path d="m15.09 63h-6.178c-.553 0-1-.447-1-1s.447-1 1-1h6.178c.553 0 1 .447 1 1s-.447 1-1 1z"/><path d="m18.999 54c-.313 0-.62-.146-.814-.419l-4.998-7c-.321-.449-.217-1.074.232-1.395.449-.322 1.075-.217 1.395.232l4.998 7c.321.449.217 1.074-.232 1.395-.177.126-.38.187-.581.187z"/><path d="m21 19h-2c-.553 0-1-.447-1-1s.447-1 1-1h2c.553 0 1 .447 1 1s-.447 1-1 1z"/><path d="m45 19h-2c-.553 0-1-.447-1-1s.447-1 1-1h2c.553 0 1 .447 1 1s-.447 1-1 1z"/><path d="m32 32c-6.262 0-10.426-3.069-10.6-3.2-.442-.331-.532-.958-.2-1.399.331-.442.956-.532 1.398-.202.038.028 3.835 2.801 9.402 2.801s9.364-2.773 9.401-2.802c.443-.33 1.07-.236 1.399.204.329.442.24 1.066-.201 1.397-.173.132-4.337 3.201-10.599 3.201z"/><path d="m39 13.684c-.553 0-1-.447-1-1v-6.684c0-.553.447-1 1-1s1 .447 1 1v6.684c0 .552-.447 1-1 1z"/><path d="m36 8c-.419 0-.809-.265-.948-.684-.175-.524.108-1.091.632-1.265l3-1c.528-.176 1.09.108 1.265.632s-.108 1.091-.632 1.265l-3 1c-.106.035-.213.052-.317.052z"/><path d="m25 13.684c-.553 0-1-.447-1-1v-6.684c0-.553.447-1 1-1s1 .447 1 1v6.684c0 .552-.447 1-1 1z"/><path d="m28 8c-.104 0-.211-.017-.316-.052l-3-1c-.523-.174-.807-.74-.632-1.265.175-.523.736-.808 1.265-.632l3 1c.523.174.807.74.632 1.265-.14.419-.53.684-.949.684z"/><path d="m35.999 8c-.209 0-.419-.065-.599-.2l-4-3c-.442-.331-.532-.958-.2-1.399.331-.442.959-.531 1.399-.2l4 3c.442.331.532.958.2 1.399-.195.262-.495.4-.8.4z"/><path d="m28.001 8c-.305 0-.604-.138-.801-.4-.332-.441-.242-1.068.2-1.399l4-3c.44-.332 1.068-.243 1.399.2.332.441.242 1.068-.2 1.399l-4 3c-.179.135-.389.2-.598.2z"/></svg>