<svg enable-background="new 0 0 512 512" viewBox="0 0 512 512" xmlns="http://www.w3.org/2000/svg"><path d="m75.702 480.187-55.765 23.617c-4.174 1.768-8.99-.183-10.758-4.357-.898-2.121-.826-4.432 0-6.401l23.617-55.765c7.05-16.646 26.259-24.426 42.906-17.376 16.646 7.05 24.426 26.259 17.376 42.906-3.441 8.124-9.855 14.169-17.376 17.376z" fill="#2b2622"/><path d="m153.573 449.535-106.592 43.143-26.676-26.676 43.144-106.592z" fill="#e5aa6e"/><path d="m352.023 90.77 70.191 70.191c6.025 6.025 6.025 15.794 0 21.819l-264.484 264.483c-2.812 2.812-7.371 2.812-10.182 0l-81.827-81.827c-2.812-2.812-2.812-7.371 0-10.182l264.483-264.484c6.025-6.026 15.794-6.026 21.819 0z" fill="#ffd469"/><path d="m450.433 23.129 39.421 39.421c14.522 14.522 14.522 38.066 0 52.588l-33.615 33.615c-2.812 2.812-7.371 2.812-10.182 0l-81.827-81.827c-2.812-2.812-2.812-7.371 0-10.182l33.615-33.615c14.522-14.522 38.066-14.522 52.588 0z" fill="#ff6e83"/><path d="m366.373 54.6 92.009 92.009-62.809 62.809-92.009-92.009z" fill="#b9c5c6"/><path d="m435.29 169.702-92.009-92.009 8.33-8.33 92.009 92.009zm-14.781 14.781-92.009-92.009-8.33 8.33 92.009 92.009z" fill="#96a9b2"/></svg>